<svg xmlns="http://www.w3.org/2000/svg" width="419" height="89" fill="none"><path fill="#764AFA" d="M0 0h27v28H0zM30 0h26v28H30zM30 31h26v28H30zM59 0h27v28H59zM59 31h27v28H59zM59 62h27v27H59V62Z"/><path d="M132.808 63.584c6.485 0 9.728-2.219 9.728-6.656 0-1.365-.299-2.517-.896-3.456-.555-.981-1.323-1.813-2.304-2.496-.981-.725-2.112-1.344-3.392-1.856a97.695 97.695 0 0 0-3.968-1.536 45.16 45.16 0 0 1-4.608-1.856c-1.451-.725-2.709-1.557-3.776-2.496a11.388 11.388 0 0 1-2.56-3.456c-.597-1.323-.896-2.923-.896-4.8 0-3.883 1.323-6.912 3.968-9.088 2.645-2.176 6.293-3.264 10.944-3.264 2.688 0 5.12.299 7.296.896 2.219.555 3.84 1.173 4.864 1.856l-1.984 5.056c-.896-.555-2.24-1.088-4.032-1.6-1.749-.555-3.797-.832-6.144-.832-1.195 0-2.304.128-3.328.384s-1.92.64-2.688 1.152a5.904 5.904 0 0 0-1.856 1.984c-.427.768-.64 1.685-.64 2.752 0 1.195.235 2.197.704 3.008.469.81 1.131 1.536 1.984 2.176a19.046 19.046 0 0 0 2.944 1.664 68.941 68.941 0 0 0 3.776 1.536 79.773 79.773 0 0 1 5.248 2.304c1.621.768 3.008 1.685 4.16 2.752a10.765 10.765 0 0 1 2.752 3.84c.64 1.45.96 3.221.96 5.312 0 3.883-1.429 6.87-4.288 8.96-2.816 2.09-6.805 3.136-11.968 3.136-1.749 0-3.371-.128-4.864-.384a37.216 37.216 0 0 1-3.904-.768 34.79 34.79 0 0 1-3.008-1.024 39.302 39.302 0 0 1-1.92-.96l1.856-5.12c.981.555 2.475 1.173 4.48 1.856 2.005.683 4.459 1.024 7.36 1.024Zm21.519-12.16c0-2.944.426-5.504 1.28-7.68.853-2.219 1.984-4.053 3.392-5.504a13.768 13.768 0 0 1 4.864-3.264 15.192 15.192 0 0 1 5.632-1.088c4.48 0 7.914 1.408 10.304 4.224 2.389 2.773 3.583 7.019 3.583 12.736v1.024c0 .384-.021.747-.063 1.088h-22.784c.256 3.456 1.258 6.08 3.008 7.872 1.749 1.792 4.48 2.688 8.192 2.688 2.09 0 3.84-.17 5.248-.512 1.45-.384 2.538-.747 3.264-1.088l.832 4.992c-.726.384-2.006.79-3.84 1.216-1.792.427-3.84.64-6.144.64-2.902 0-5.419-.427-7.552-1.28-2.091-.896-3.819-2.112-5.184-3.648-1.366-1.536-2.39-3.35-3.073-5.44-.639-2.133-.959-4.459-.959-6.976Zm22.848-3.264c.042-2.688-.64-4.885-2.048-6.592-1.366-1.75-3.264-2.624-5.696-2.624-1.366 0-2.582.277-3.648.832a8.237 8.237 0 0 0-2.624 2.048 10.074 10.074 0 0 0-1.728 2.944c-.384 1.11-.64 2.24-.768 3.392h16.512Zm14.758-12.48c1.365-.341 3.178-.704 5.44-1.088 2.261-.384 4.864-.576 7.808-.576 2.645 0 4.842.384 6.592 1.152 1.749.725 3.136 1.77 4.16 3.136 1.066 1.323 1.813 2.923 2.24 4.8.426 1.877.639 3.947.639 6.208V68h-5.951V50.592c0-2.048-.15-3.797-.448-5.248-.256-1.45-.704-2.624-1.344-3.52-.64-.896-1.494-1.536-2.56-1.92-1.067-.427-2.39-.64-3.968-.64-.64 0-1.302.021-1.984.064-.683.043-1.344.107-1.984.192-.598.043-1.152.107-1.664.192-.47.085-.811.15-1.024.192V68h-5.952V35.68Zm44.494 28.032c2.432 0 4.224-.32 5.376-.96 1.194-.64 1.792-1.664 1.792-3.072 0-1.45-.576-2.603-1.728-3.456-1.152-.853-3.051-1.813-5.696-2.88a163.566 163.566 0 0 1-3.712-1.536c-1.152-.555-2.155-1.195-3.008-1.92a8.23 8.23 0 0 1-2.048-2.624c-.512-1.024-.768-2.283-.768-3.776 0-2.944 1.088-5.27 3.264-6.976 2.176-1.75 5.141-2.624 8.896-2.624.938 0 1.877.064 2.816.192a22.78 22.78 0 0 1 2.624.384c.81.128 1.514.277 2.112.448.64.17 1.13.32 1.472.448l-1.088 5.12c-.64-.341-1.643-.683-3.008-1.024-1.366-.384-3.008-.576-4.928-.576-1.664 0-3.115.341-4.352 1.024-1.238.64-1.856 1.664-1.856 3.072 0 .725.128 1.365.383 1.92.299.555.726 1.067 1.281 1.536.597.427 1.322.832 2.176 1.216a42 42 0 0 0 3.072 1.216 52.737 52.737 0 0 1 4.224 1.792c1.237.555 2.282 1.216 3.136 1.984a7.514 7.514 0 0 1 2.048 2.816c.469 1.067.704 2.39.704 3.968 0 3.072-1.152 5.397-3.456 6.976-2.262 1.579-5.504 2.368-9.728 2.368-2.944 0-5.248-.256-6.912-.768-1.664-.47-2.795-.832-3.392-1.088l1.088-5.12c.682.256 1.77.64 3.264 1.152 1.493.512 3.477.768 5.952.768Zm18.962-12.288c0-2.944.427-5.504 1.28-7.68.853-2.219 1.984-4.053 3.392-5.504a13.768 13.768 0 0 1 4.864-3.264 15.196 15.196 0 0 1 5.632-1.088c4.48 0 7.915 1.408 10.304 4.224 2.389 2.773 3.584 7.019 3.584 12.736v1.024c0 .384-.021.747-.064 1.088h-22.784c.256 3.456 1.259 6.08 3.008 7.872 1.749 1.792 4.48 2.688 8.192 2.688 2.091 0 3.84-.17 5.248-.512 1.451-.384 2.539-.747 3.264-1.088l.832 4.992c-.725.384-2.005.79-3.84 1.216-1.792.427-3.84.64-6.144.64-2.901 0-5.419-.427-7.552-1.28-2.091-.896-3.819-2.112-5.184-3.648-1.365-1.536-2.389-3.35-3.072-5.44-.64-2.133-.96-4.459-.96-6.976Zm22.848-3.264c.043-2.688-.64-4.885-2.048-6.592-1.365-1.75-3.264-2.624-5.696-2.624-1.365 0-2.581.277-3.648.832a8.237 8.237 0 0 0-2.624 2.048 10.118 10.118 0 0 0-1.728 2.944c-.384 1.11-.64 2.24-.768 3.392h16.512ZM308.192 68V23.648h27.072v5.312H314.4v13.184h18.56v5.184H314.4v15.36h22.464V68h-28.672Zm58.258-18.56a95.877 95.877 0 0 1 2.56 3.392 65.11 65.11 0 0 1 3.264 4.608 101.193 101.193 0 0 1 3.264 5.248A49.915 49.915 0 0 1 378.354 68h-6.784a84.367 84.367 0 0 0-2.816-4.928 82.094 82.094 0 0 0-3.008-4.736 74.64 74.64 0 0 0-3.072-4.288 84.4 84.4 0 0 0-2.688-3.456c-.555.043-1.131.064-1.728.064H350.962V68h-6.208V24.288c1.749-.427 3.691-.704 5.824-.832 2.176-.17 4.16-.256 5.952-.256 6.229 0 10.965 1.173 14.208 3.52 3.285 2.347 4.928 5.845 4.928 10.496 0 2.944-.789 5.461-2.368 7.552-1.536 2.09-3.819 3.648-6.848 4.672Zm-9.408-20.8c-2.645 0-4.672.064-6.08.192v16.704h4.416c2.133 0 4.053-.107 5.76-.32 1.707-.213 3.136-.619 4.288-1.216 1.195-.597 2.112-1.43 2.752-2.496.64-1.11.96-2.56.96-4.352 0-1.664-.32-3.05-.96-4.16a7.043 7.043 0 0 0-2.624-2.624c-1.067-.64-2.347-1.088-3.84-1.344a26.898 26.898 0 0 0-4.672-.384Zm39.738-5.44c6.229 0 11.008 1.195 14.336 3.584 3.371 2.347 5.056 5.867 5.056 10.56 0 2.56-.469 4.757-1.408 6.592-.896 1.792-2.219 3.264-3.968 4.416-1.707 1.11-3.797 1.92-6.272 2.432s-5.269.768-8.384.768h-4.928V68h-6.208V24.288c1.749-.427 3.691-.704 5.824-.832 2.176-.17 4.16-.256 5.952-.256Zm.512 5.44c-2.645 0-4.672.064-6.08.192V46.24h4.672c2.133 0 4.053-.128 5.76-.384 1.707-.299 3.136-.768 4.288-1.408 1.195-.683 2.112-1.6 2.752-2.752.64-1.152.96-2.624.96-4.416 0-1.707-.341-3.115-1.024-4.224a6.912 6.912 0 0 0-2.688-2.624c-1.109-.683-2.411-1.152-3.904-1.408a28.013 28.013 0 0 0-4.736-.384Z" fill="#fff"/></svg>