<?xml version="1.0" encoding="UTF-8"?> <svg xmlns="http://www.w3.org/2000/svg" width="419" height="89" viewBox="0 0 419 89" fill="none"><rect width="27" height="28" fill="#764AFA"></rect><rect x="30" width="26" height="28" fill="#764AFA"></rect><rect x="30" y="31" width="26" height="28" fill="#764AFA"></rect><rect x="59" width="27" height="28" fill="#764AFA"></rect><rect x="59" y="31" width="27" height="28" fill="#764AFA"></rect><path d="M59 62H86V89H59V62Z" fill="#764AFA"></path><path d="M132.808 63.584C139.293 63.584 142.536 61.3653 142.536 56.928C142.536 55.5627 142.237 54.4107 141.64 53.472C141.085 52.4907 140.317 51.6587 139.336 50.976C138.355 50.2507 137.224 49.632 135.944 49.12C134.707 48.608 133.384 48.096 131.976 47.584C130.355 47.0293 128.819 46.4107 127.368 45.728C125.917 45.0027 124.659 44.1707 123.592 43.232C122.525 42.2507 121.672 41.0987 121.032 39.776C120.435 38.4533 120.136 36.8533 120.136 34.976C120.136 31.0933 121.459 28.064 124.104 25.888C126.749 23.712 130.397 22.624 135.048 22.624C137.736 22.624 140.168 22.9227 142.344 23.52C144.563 24.0747 146.184 24.6933 147.208 25.376L145.224 30.432C144.328 29.8773 142.984 29.344 141.192 28.832C139.443 28.2773 137.395 28 135.048 28C133.853 28 132.744 28.128 131.72 28.384C130.696 28.64 129.8 29.024 129.032 29.536C128.264 30.048 127.645 30.7093 127.176 31.52C126.749 32.288 126.536 33.2053 126.536 34.272C126.536 35.4667 126.771 36.4693 127.24 37.28C127.709 38.0907 128.371 38.816 129.224 39.456C130.077 40.0533 131.059 40.608 132.168 41.12C133.32 41.632 134.579 42.144 135.944 42.656C137.864 43.424 139.613 44.192 141.192 44.96C142.813 45.728 144.2 46.6453 145.352 47.712C146.547 48.7787 147.464 50.0587 148.104 51.552C148.744 53.0027 149.064 54.7733 149.064 56.864C149.064 60.7467 147.635 63.7333 144.776 65.824C141.96 67.9147 137.971 68.96 132.808 68.96C131.059 68.96 129.437 68.832 127.944 68.576C126.493 68.3627 125.192 68.1067 124.04 67.808C122.888 67.4667 121.885 67.1253 121.032 66.784C120.221 66.4 119.581 66.08 119.112 65.824L120.968 60.704C121.949 61.2587 123.443 61.8773 125.448 62.56C127.453 63.2427 129.907 63.584 132.808 63.584ZM154.327 51.424C154.327 48.48 154.753 45.92 155.607 43.744C156.46 41.5253 157.591 39.6907 158.999 38.24C160.407 36.7893 162.028 35.7013 163.863 34.976C165.697 34.2507 167.575 33.888 169.495 33.888C173.975 33.888 177.409 35.296 179.799 38.112C182.188 40.8853 183.382 45.1307 183.382 50.848C183.382 51.104 183.382 51.4453 183.382 51.872C183.382 52.256 183.361 52.6187 183.319 52.96H160.535C160.791 56.416 161.793 59.04 163.543 60.832C165.292 62.624 168.023 63.52 171.735 63.52C173.825 63.52 175.575 63.3493 176.983 63.008C178.433 62.624 179.521 62.2613 180.247 61.92L181.079 66.912C180.353 67.296 179.073 67.7013 177.239 68.128C175.447 68.5547 173.399 68.768 171.095 68.768C168.193 68.768 165.676 68.3413 163.543 67.488C161.452 66.592 159.724 65.376 158.359 63.84C156.993 62.304 155.969 60.4907 155.286 58.4C154.647 56.2667 154.327 53.9413 154.327 51.424ZM177.175 48.16C177.217 45.472 176.535 43.2747 175.127 41.568C173.761 39.8187 171.863 38.944 169.431 38.944C168.065 38.944 166.849 39.2213 165.783 39.776C164.759 40.288 163.884 40.9707 163.159 41.824C162.433 42.6773 161.857 43.6587 161.431 44.768C161.047 45.8773 160.791 47.008 160.663 48.16H177.175ZM191.933 35.68C193.298 35.3387 195.111 34.976 197.373 34.592C199.634 34.208 202.237 34.016 205.181 34.016C207.826 34.016 210.023 34.4 211.773 35.168C213.522 35.8933 214.909 36.9387 215.933 38.304C216.999 39.6267 217.746 41.2267 218.173 43.104C218.599 44.9813 218.812 47.0507 218.812 49.312V68H212.861V50.592C212.861 48.544 212.711 46.7947 212.413 45.344C212.157 43.8933 211.709 42.72 211.069 41.824C210.429 40.928 209.575 40.288 208.509 39.904C207.442 39.4773 206.119 39.264 204.541 39.264C203.901 39.264 203.239 39.2853 202.557 39.328C201.874 39.3707 201.213 39.4347 200.573 39.52C199.975 39.5627 199.421 39.6267 198.909 39.712C198.439 39.7973 198.098 39.8613 197.885 39.904V68H191.933V35.68ZM236.427 63.712C238.859 63.712 240.651 63.392 241.803 62.752C242.997 62.112 243.595 61.088 243.595 59.68C243.595 58.2293 243.019 57.0773 241.867 56.224C240.715 55.3707 238.816 54.4107 236.171 53.344C234.891 52.832 233.653 52.32 232.459 51.808C231.307 51.2533 230.304 50.6133 229.451 49.888C228.597 49.1627 227.915 48.288 227.403 47.264C226.891 46.24 226.635 44.9813 226.635 43.488C226.635 40.544 227.723 38.2187 229.899 36.512C232.075 34.7627 235.04 33.888 238.795 33.888C239.733 33.888 240.672 33.952 241.611 34.08C242.549 34.1653 243.424 34.2933 244.235 34.464C245.045 34.592 245.749 34.7413 246.347 34.912C246.987 35.0827 247.477 35.232 247.819 35.36L246.731 40.48C246.091 40.1387 245.088 39.7973 243.723 39.456C242.357 39.072 240.715 38.88 238.795 38.88C237.131 38.88 235.68 39.2213 234.443 39.904C233.205 40.544 232.587 41.568 232.587 42.976C232.587 43.7013 232.715 44.3413 232.97 44.896C233.269 45.4507 233.696 45.9627 234.251 46.432C234.848 46.8587 235.573 47.264 236.427 47.648C237.28 48.032 238.304 48.4373 239.499 48.864C241.077 49.4613 242.485 50.0587 243.723 50.656C244.96 51.2107 246.005 51.872 246.859 52.64C247.755 53.408 248.437 54.3467 248.907 55.456C249.376 56.5227 249.611 57.8453 249.611 59.424C249.611 62.496 248.459 64.8213 246.155 66.4C243.893 67.9787 240.651 68.768 236.427 68.768C233.483 68.768 231.179 68.512 229.515 68C227.851 67.5307 226.72 67.168 226.123 66.912L227.211 61.792C227.893 62.048 228.981 62.432 230.475 62.944C231.968 63.456 233.952 63.712 236.427 63.712ZM255.389 51.424C255.389 48.48 255.816 45.92 256.669 43.744C257.522 41.5253 258.653 39.6907 260.061 38.24C261.469 36.7893 263.09 35.7013 264.925 34.976C266.76 34.2507 268.637 33.888 270.557 33.888C275.037 33.888 278.472 35.296 280.861 38.112C283.25 40.8853 284.445 45.1307 284.445 50.848C284.445 51.104 284.445 51.4453 284.445 51.872C284.445 52.256 284.424 52.6187 284.381 52.96H261.597C261.853 56.416 262.856 59.04 264.605 60.832C266.354 62.624 269.085 63.52 272.797 63.52C274.888 63.52 276.637 63.3493 278.045 63.008C279.496 62.624 280.584 62.2613 281.309 61.92L282.141 66.912C281.416 67.296 280.136 67.7013 278.301 68.128C276.509 68.5547 274.461 68.768 272.157 68.768C269.256 68.768 266.738 68.3413 264.605 67.488C262.514 66.592 260.786 65.376 259.421 63.84C258.056 62.304 257.032 60.4907 256.349 58.4C255.709 56.2667 255.389 53.9413 255.389 51.424ZM278.237 48.16C278.28 45.472 277.597 43.2747 276.189 41.568C274.824 39.8187 272.925 38.944 270.493 38.944C269.128 38.944 267.912 39.2213 266.845 39.776C265.821 40.288 264.946 40.9707 264.221 41.824C263.496 42.6773 262.92 43.6587 262.493 44.768C262.109 45.8773 261.853 47.008 261.725 48.16H278.237ZM308.192 68V23.648H335.264V28.96H314.4V42.144H332.96V47.328H314.4V62.688H336.864V68H308.192ZM366.45 49.44C367.133 50.2933 367.986 51.424 369.01 52.832C370.077 54.1973 371.165 55.7333 372.274 57.44C373.383 59.104 374.471 60.8533 375.538 62.688C376.647 64.5227 377.586 66.2933 378.354 68H371.57C370.717 66.3787 369.778 64.736 368.754 63.072C367.773 61.408 366.77 59.8293 365.746 58.336C364.722 56.8 363.698 55.3707 362.674 54.048C361.693 52.7253 360.797 51.5733 359.986 50.592C359.431 50.6347 358.855 50.656 358.258 50.656C357.703 50.656 357.127 50.656 356.53 50.656H350.962V68H344.754V24.288C346.503 23.8613 348.445 23.584 350.578 23.456C352.754 23.2853 354.738 23.2 356.53 23.2C362.759 23.2 367.495 24.3733 370.738 26.72C374.023 29.0667 375.666 32.5653 375.666 37.216C375.666 40.16 374.877 42.6773 373.298 44.768C371.762 46.8587 369.479 48.416 366.45 49.44ZM357.042 28.64C354.397 28.64 352.37 28.704 350.962 28.832V45.536H355.378C357.511 45.536 359.431 45.4293 361.138 45.216C362.845 45.0027 364.274 44.5973 365.426 44C366.621 43.4027 367.538 42.5707 368.178 41.504C368.818 40.3947 369.138 38.944 369.138 37.152C369.138 35.488 368.818 34.1013 368.178 32.992C367.538 31.8827 366.663 31.008 365.554 30.368C364.487 29.728 363.207 29.28 361.714 29.024C360.263 28.768 358.706 28.64 357.042 28.64ZM396.78 23.2C403.009 23.2 407.788 24.3947 411.116 26.784C414.487 29.1307 416.172 32.6507 416.172 37.344C416.172 39.904 415.703 42.1013 414.764 43.936C413.868 45.728 412.545 47.2 410.796 48.352C409.089 49.4613 406.999 50.272 404.524 50.784C402.049 51.296 399.255 51.552 396.14 51.552H391.212V68H385.004V24.288C386.753 23.8613 388.695 23.584 390.828 23.456C393.004 23.2853 394.988 23.2 396.78 23.2ZM397.292 28.64C394.647 28.64 392.62 28.704 391.212 28.832V46.24H395.884C398.017 46.24 399.937 46.112 401.644 45.856C403.351 45.5573 404.78 45.088 405.932 44.448C407.127 43.7653 408.044 42.848 408.684 41.696C409.324 40.544 409.644 39.072 409.644 37.28C409.644 35.5733 409.303 34.1653 408.62 33.056C407.98 31.9467 407.084 31.072 405.932 30.432C404.823 29.7493 403.521 29.28 402.028 29.024C400.535 28.768 398.956 28.64 397.292 28.64Z" fill="black"></path></svg> 